<svg width="18" height="17" viewBox="0 0 18 17" fill="none" xmlns="http://www.w3.org/2000/svg">
<path d="M10.6667 4.00001V2.33334H7.33332V4.00001H10.6667ZM2.33332 5.66667V14.8333H15.6667V5.66667H2.33332ZM15.6667 4.00001C16.5917 4.00001 17.3333 4.74167 17.3333 5.66667V14.8333C17.3333 15.7583 16.5917 16.5 15.6667 16.5H2.33332C1.40832 16.5 0.666656 15.7583 0.666656 14.8333L0.67499 5.66667C0.67499 4.74167 1.40832 4.00001 2.33332 4.00001H5.66666V2.33334C5.66666 1.40834 6.40832 0.666672 7.33332 0.666672H10.6667C11.5917 0.666672 12.3333 1.40834 12.3333 2.33334V4.00001H15.6667Z" fill="#383838"/>
</svg>
